<svg xmlns="http://www.w3.org/2000/svg" viewBox="0 0 32 32" width="32" height="32" fill="none">
  <!-- Definitions for premium gradients -->
  <defs>
    <linearGradient id="devflow-favicon-grad" x1="0%" y1="0%" x2="100%" y2="100%">
      <stop offset="0%" stop-color="#8C60F3" />
      <stop offset="100%" stop-color="#5B21B6" />
    </linearGradient>
  </defs>

  <!-- Rounded Background Container -->
  <rect width="32" height="32" rx="8.5" fill="url(#devflow-favicon-grad)" />

  <!-- Lucide Sparkles icon scaled to 18x18 and centered (at x=7, y=7) -->
  <g transform="translate(7, 7) scale(0.75)" stroke="white" stroke-width="2.2" stroke-linecap="round" stroke-linejoin="round">
    <path d="m12 3-1.912 5.813a2 2 0 0 1-1.275 1.275L3 12l5.813 1.912a2 2 0 0 1 1.275 1.275L12 21l1.912-5.813a2 2 0 0 1 1.275-1.275L21 12l-5.813-1.912a2 2 0 0 1-1.275-1.275Z" fill="white" fill-opacity="0.15" />
    <path d="m5 3 1 2.5L8.5 6 6 7 5 9.5 4 7 1.5 6 4 5.5Z" fill="white" />
    <path d="m19 17 1 2.5 2.5.5-2.5 1-1 2.5-1-2.5-2.5-1 2.5-1Z" fill="white" />
  </g>
</svg>
